<?xml version="1.0" encoding="utf-8"?>
<svg viewBox="10.735 8.127 91.664 62.113" xmlns="http://www.w3.org/2000/svg">
  <path d="M 10.735 39.183 C 10.735 22.032 20.995 8.127 33.651 8.127 C 40.513 8.127 46.67 12.214 50.871 18.688 C 58.49 30.284 64.791 29.674 71.483 21.115 C 74.767 16.913 79.196 14.338 84.066 14.338 C 94.192 14.338 102.399 25.461 102.399 39.183 C 102.399 52.904 94.192 64.029 84.066 64.029 C 79.196 64.029 74.767 61.452 71.483 57.252 C 64.793 48.693 58.494 48.083 50.876 59.668 C 46.677 66.149 40.516 70.24 33.651 70.24 C 20.995 70.24 10.735 56.335 10.735 39.183 Z" style="fill: rgb(99, 104, 241);"/>
</svg>