<?xml version="1.0" standalone="no"?>
<!DOCTYPE svg PUBLIC "-//W3C//DTD SVG 20010904//EN"
 "http://www.w3.org/TR/2001/REC-SVG-20010904/DTD/svg10.dtd">
<svg version="1.0" xmlns="http://www.w3.org/2000/svg"
 width="1472.000000pt" height="1472.000000pt" viewBox="0 0 1472.000000 1472.000000"
 preserveAspectRatio="xMidYMid meet">
<metadata>
Created by potrace 1.14, written by Peter Selinger 2001-2017
</metadata>
<g transform="translate(0.000000,1472.000000) scale(0.100000,-0.100000)"
fill="#000000" stroke="none">
<path d="M3489 12346 c-2 -2 -42 -7 -89 -11 -47 -4 -94 -9 -105 -11 -11 -3
-36 -7 -55 -10 -88 -12 -294 -60 -343 -79 -20 -8 -41 -14 -45 -13 -4 0 -14 -1
-22 -5 -34 -13 -115 -42 -120 -43 -3 0 -18 -6 -33 -12 -16 -7 -30 -12 -32 -12
-3 0 -28 -11 -57 -24 -29 -13 -78 -34 -108 -47 -30 -13 -57 -25 -60 -28 -3 -4
-48 -28 -100 -55 -52 -27 -101 -53 -109 -59 -16 -14 -49 -33 -77 -46 -11 -5
-28 -17 -38 -26 -9 -9 -23 -18 -32 -19 -9 -1 -19 -7 -22 -12 -4 -5 -38 -32
-77 -59 -38 -27 -75 -54 -81 -60 -7 -5 -24 -19 -40 -30 -134 -95 -418 -369
-569 -549 -22 -26 -55 -64 -72 -84 -18 -20 -33 -40 -33 -43 0 -3 -11 -19 -25
-35 -30 -34 -32 -37 -65 -84 -13 -19 -27 -37 -30 -40 -17 -15 -60 -80 -53 -80
4 0 3 -4 -2 -8 -16 -11 -65 -80 -65 -90 0 -5 -9 -17 -20 -27 -11 -10 -20 -24
-20 -32 0 -7 -4 -13 -9 -13 -5 0 -11 -8 -14 -17 -8 -24 -40 -77 -49 -81 -5 -2
-8 -8 -8 -13 0 -4 -22 -46 -49 -91 -59 -101 -155 -287 -158 -308 -1 -8 -7 -16
-12 -18 -6 -2 -11 -12 -11 -23 0 -10 -4 -19 -10 -19 -5 0 -10 -5 -10 -11 0
-10 -29 -80 -81 -196 -11 -23 -19 -47 -19 -52 0 -6 -4 -11 -8 -11 -5 0 -9 -6
-9 -13 0 -6 -12 -43 -28 -82 -15 -38 -28 -74 -30 -80 -1 -5 -7 -21 -12 -35
-14 -34 -94 -270 -99 -295 -10 -42 -13 -50 -14 -52 -2 -2 -4 -7 -5 -13 -1 -5
-3 -11 -4 -12 -3 -4 -11 -40 -14 -63 -1 -11 -5 -22 -9 -25 -4 -3 -8 -17 -10
-32 -2 -15 -7 -30 -10 -34 -4 -3 -4 -12 -1 -20 3 -8 -1 -14 -8 -14 -7 0 -10
-2 -7 -5 3 -3 -1 -31 -9 -63 -13 -53 -18 -76 -28 -127 -2 -11 -4 -21 -5 -22
-3 -4 -5 -11 -15 -68 -4 -27 -9 -54 -11 -60 -7 -29 -47 -255 -50 -285 -2 -19
-10 -84 -19 -143 -8 -59 -17 -138 -20 -175 -3 -37 -8 -87 -10 -112 -21 -206
-27 -763 -12 -980 12 -173 23 -307 32 -375 3 -22 10 -76 16 -120 6 -44 12 -93
15 -110 3 -16 7 -43 10 -60 2 -16 9 -52 14 -80 5 -27 12 -63 15 -80 2 -16 10
-55 16 -85 6 -30 12 -64 14 -75 2 -11 7 -31 11 -45 3 -14 7 -35 8 -47 0 -13 4
-23 7 -23 6 0 6 -3 13 -55 3 -16 5 -31 6 -32 2 -2 3 -6 4 -10 1 -5 5 -14 9
-20 5 -7 6 -13 3 -13 -2 0 0 -15 5 -32 6 -18 13 -46 16 -63 3 -16 10 -36 15
-42 6 -7 8 -13 5 -13 -3 0 3 -26 14 -57 11 -32 19 -58 19 -58 -4 0 14 -62 20
-70 3 -5 12 -30 19 -55 7 -25 36 -108 64 -185 28 -77 51 -143 49 -147 -1 -5 2
-8 8 -8 6 0 9 -3 8 -7 -2 -9 16 -53 40 -98 9 -16 15 -31 14 -33 -2 -1 7 -24
19 -50 12 -26 21 -51 20 -56 -1 -5 3 -12 9 -16 6 -4 12 -14 14 -22 1 -8 10
-27 19 -41 10 -15 14 -27 11 -27 -4 0 1 -9 11 -20 10 -11 15 -20 11 -20 -4 0
2 -13 13 -29 11 -15 18 -31 14 -35 -3 -3 -1 -6 5 -6 7 0 11 -3 10 -7 -1 -5 9
-28 22 -53 13 -25 24 -47 25 -50 0 -3 8 -16 16 -30 40 -64 89 -152 89 -161 0
-5 5 -9 10 -9 6 0 10 -4 10 -10 0 -9 69 -123 90 -147 5 -7 10 -17 10 -23 0 -5
5 -10 10 -10 6 0 10 -7 10 -15 0 -8 5 -15 10 -15 6 0 10 -7 10 -15 0 -8 4 -15
8 -15 5 0 14 -11 20 -24 6 -14 18 -33 26 -43 8 -10 45 -58 82 -108 37 -49 70
-92 73 -95 4 -3 18 -21 33 -40 60 -79 161 -191 279 -309 117 -117 199 -193
249 -231 18 -14 40 -32 49 -41 9 -8 45 -37 81 -64 36 -27 67 -53 68 -57 2 -4
8 -8 13 -8 6 0 33 -17 62 -38 79 -58 267 -172 283 -172 8 0 14 -4 14 -9 0 -5
20 -17 45 -28 25 -10 45 -21 45 -25 0 -5 4 -8 9 -8 5 0 22 -5 38 -12 15 -6 31
-11 36 -10 4 1 7 -2 7 -6 0 -5 26 -19 58 -31 31 -13 77 -32 101 -43 25 -11 53
-21 63 -23 10 -2 24 -7 31 -12 6 -4 17 -8 24 -9 13 -2 107 -31 133 -41 17 -7
24 -9 65 -18 43 -9 60 -13 60 -15 0 -3 175 -38 220 -45 11 -1 34 -5 50 -8 81
-15 187 -21 365 -21 232 -1 376 10 530 41 14 3 34 7 45 8 11 2 21 4 23 5 1 2
5 3 10 4 12 3 66 16 87 21 76 18 142 37 220 65 50 17 96 32 103 33 6 0 12 4
12 9 0 5 4 7 9 3 5 -3 12 -1 16 5 4 6 11 8 16 5 5 -4 9 -1 9 4 0 6 6 11 13 11
12 0 178 70 187 80 3 3 48 27 100 54 52 27 101 53 109 59 17 14 49 33 78 46
12 6 31 18 41 28 11 10 39 29 62 43 24 14 48 30 54 35 6 6 27 22 46 35 19 13
40 29 46 35 7 5 24 19 40 30 138 98 424 375 584 566 25 29 53 61 63 71 9 10
14 18 10 18 -4 0 2 8 13 19 10 10 26 29 34 41 8 13 22 31 30 39 8 9 33 42 54
74 22 31 43 57 48 57 4 0 7 3 6 7 -2 5 17 37 41 73 153 225 195 285 203 288 4
2 8 10 8 18 0 8 5 14 10 14 6 0 10 6 10 13 0 11 27 46 74 100 9 9 16 20 16 25
0 4 10 18 23 32 12 14 49 59 82 100 121 152 315 358 430 456 26 21 63 54 83
71 20 18 40 33 44 33 4 0 13 6 20 13 22 22 178 127 178 120 0 -3 8 1 18 9 71
61 326 155 477 176 85 11 350 5 350 -8 0 -1 9 -3 20 -5 11 -1 31 -5 45 -8 14
-3 34 -8 45 -11 11 -2 40 -12 65 -21 25 -9 54 -19 64 -22 33 -10 179 -84 208
-105 16 -11 28 -16 28 -11 0 4 4 4 8 -2 4 -5 41 -32 82 -60 41 -27 77 -52 80
-55 3 -3 25 -21 50 -40 25 -19 53 -43 63 -54 9 -10 17 -17 17 -13 0 3 26 -20
59 -51 32 -32 71 -69 87 -84 16 -15 34 -33 40 -40 6 -7 20 -20 30 -29 24 -20
139 -149 214 -238 19 -23 45 -54 58 -69 12 -15 42 -52 65 -82 23 -30 47 -60
52 -66 6 -6 32 -38 60 -70 85 -102 295 -305 408 -395 224 -179 485 -332 697
-408 19 -7 44 -17 55 -22 39 -16 121 -41 215 -64 94 -23 123 -29 232 -44 31
-5 61 -12 67 -15 6 -4 11 -2 11 4 0 6 5 8 11 4 6 -3 27 -8 47 -10 51 -4 301
-5 337 0 70 9 181 20 188 18 4 -1 7 3 7 9 0 5 4 8 9 4 5 -3 29 -1 53 4 24 6
54 12 68 15 14 3 52 13 85 22 33 9 65 17 72 18 7 1 16 5 19 9 4 4 13 7 20 7 7
0 25 5 41 12 15 6 31 12 36 13 4 2 8 3 10 5 1 1 9 3 17 5 49 10 404 187 430
215 7 7 42 29 60 37 8 4 17 9 20 12 3 3 25 20 50 36 25 16 47 32 50 35 3 3 25
21 50 40 25 19 46 38 48 42 2 4 8 8 13 8 29 0 479 455 479 484 0 6 33 47 67
83 12 13 20 23 18 23 -4 0 44 68 74 106 4 5 14 21 21 35 7 13 16 26 20 29 15
11 148 238 143 244 -4 3 -1 6 5 6 7 0 12 6 12 14 0 8 3 16 8 18 13 5 156 301
207 428 14 36 30 74 35 85 26 62 59 159 55 166 -3 4 -2 9 2 11 8 3 51 122 58
158 2 10 9 28 15 39 6 12 8 21 6 21 -3 0 1 19 10 42 8 22 12 43 9 46 -3 3 -1
10 5 16 5 7 11 25 14 41 3 17 10 44 15 62 5 17 7 34 3 37 -3 3 -1 6 4 6 6 0
11 10 11 23 1 21 10 62 13 62 1 0 7 27 14 75 2 14 7 36 10 50 3 14 8 41 11 60
12 68 13 75 15 80 1 3 2 8 1 12 0 4 4 31 9 60 12 69 17 110 25 183 3 33 8 80
11 105 26 255 25 885 -2 1034 -2 15 -6 50 -8 79 -3 29 -9 87 -16 130 -6 42 -9
81 -5 86 3 5 1 11 -4 13 -5 1 -11 23 -14 48 -7 51 -15 94 -23 130 -3 14 -8 39
-10 55 -5 36 -12 70 -14 70 -1 0 -3 7 -5 15 -3 17 -10 44 -25 110 -6 25 -12
52 -14 60 -2 8 -6 22 -8 30 -9 27 -40 134 -43 150 -2 8 -4 15 -5 15 -1 0 -3 7
-5 16 -7 38 -89 266 -141 395 -97 241 -246 527 -374 719 -88 132 -114 170
-120 175 -3 3 -17 21 -30 40 -13 19 -27 37 -30 40 -4 3 -24 28 -46 55 -93 118
-225 258 -351 371 -65 59 -134 118 -156 133 -12 8 -24 17 -27 21 -3 3 -22 16
-42 30 -21 14 -38 28 -38 33 0 4 -7 7 -15 7 -8 0 -15 4 -15 8 0 5 -10 14 -22
20 -13 7 -41 23 -63 37 -22 14 -47 28 -55 32 -8 4 -17 10 -20 13 -7 10 -205
112 -270 139 -30 13 -68 29 -85 36 -34 15 -120 45 -128 44 -1 0 -28 9 -59 20
-32 11 -58 18 -58 16 0 -2 -17 2 -38 9 -21 8 -57 16 -81 20 -23 3 -45 8 -49
10 -4 2 -30 7 -57 11 -28 3 -66 8 -85 11 -106 14 -318 19 -430 10 -87 -7 -185
-18 -191 -22 -3 -2 -21 -6 -40 -9 -76 -12 -245 -54 -289 -72 -8 -4 -17 -7 -20
-8 -92 -23 -368 -150 -460 -210 -8 -5 -17 -10 -20 -10 -9 -1 -95 -59 -102 -70
-4 -6 -8 -6 -8 -1 0 6 -9 0 -20 -12 -12 -12 -25 -22 -30 -22 -5 0 -15 -6 -22
-12 -7 -7 -36 -30 -63 -50 -84 -63 -100 -76 -129 -103 -15 -14 -29 -25 -33
-25 -12 0 -293 -291 -352 -365 -35 -44 -70 -85 -78 -91 -7 -6 -13 -15 -13 -20
0 -5 -9 -16 -20 -24 -11 -8 -20 -20 -20 -26 0 -7 -3 -14 -8 -16 -4 -1 -30 -30
-57 -63 -62 -74 -98 -114 -152 -172 -24 -24 -43 -48 -43 -54 0 -5 -6 -9 -12
-10 -7 0 -32 -23 -55 -50 -24 -27 -43 -48 -43 -45 0 2 -17 -12 -37 -33 -21
-20 -67 -62 -103 -92 -36 -29 -66 -57 -68 -61 -2 -5 -10 -8 -18 -8 -8 0 -14
-4 -14 -8 0 -5 -33 -31 -72 -58 -40 -27 -75 -51 -78 -54 -6 -6 -54 -33 -122
-68 -29 -15 -55 -29 -58 -32 -20 -20 -248 -98 -305 -104 -16 -2 -38 -7 -49
-11 -23 -10 -264 -12 -326 -3 -84 12 -208 44 -265 68 -109 46 -288 140 -305
161 -3 3 -15 12 -28 18 -13 7 -31 19 -40 26 -9 8 -40 31 -69 52 -102 76 -310
273 -409 389 -27 32 -64 73 -81 92 -18 19 -33 38 -33 41 0 3 -12 20 -28 36
-15 17 -40 48 -56 70 -16 22 -36 47 -43 55 -8 8 -46 60 -85 115 -40 55 -75
102 -78 105 -3 3 -11 17 -19 32 -8 15 -22 37 -33 47 -10 11 -18 25 -18 31 0 5
-4 10 -10 10 -5 0 -10 7 -10 15 0 8 -9 23 -20 32 -11 10 -20 20 -20 24 0 9
-65 105 -84 125 -9 8 -16 20 -16 25 0 6 -6 16 -12 23 -7 7 -22 25 -33 41 -11
16 -29 38 -40 50 -11 11 -21 24 -22 29 -1 4 -14 23 -30 41 -15 19 -41 51 -58
72 -103 129 -310 344 -440 459 -94 82 -110 96 -190 157 -44 33 -81 65 -83 69
-2 4 -10 8 -17 8 -7 0 -15 3 -17 8 -15 33 -568 351 -568 326 0 -4 -10 0 -22 8
-23 14 -149 67 -178 74 -8 2 -35 11 -60 20 -25 9 -56 18 -70 21 -13 2 -30 9
-37 15 -7 6 -13 8 -13 5 0 -2 -33 4 -72 15 -40 11 -82 21 -93 24 -58 12 -75
15 -135 25 -36 5 -83 12 -105 15 -22 2 -56 7 -75 10 -41 7 -465 16 -471 10z"/>
</g>
</svg>
